<?xml version="1.0" ?><svg height="32px" id="WhatsApp" style="enable-background:new 0 0 32 32;" version="1.0" viewBox="0 0 32 32" width="32px" xml:space="preserve" xmlns="http://www.w3.org/2000/svg" xmlns:xlink="http://www.w3.org/1999/xlink"><style type="text/css">
	.Drop_x0020_Shadow{fill:none;}
	.Round_x0020_Corners_x0020_2_x0020_pt{fill:#FFFFFF;stroke:#000000;stroke-miterlimit:10;}
	.Live_x0020_Reflect_x0020_X{fill:none;}
	.Bevel_x0020_Soft{fill:url(#SVGID_1_);}
	.Dusk{fill:#FFFFFF;}
	.Foliage_GS{fill:#FFDD00;}
	.Pompadour_GS{fill-rule:evenodd;clip-rule:evenodd;fill:#44ADE2;}
	.st0{fill:#BE1E2D;}
	.st1{fill:#FFFFFF;}
</style><linearGradient gradientUnits="userSpaceOnUse" id="SVGID_1_" x1="-141" x2="-140.2929" y1="-94" y2="-93.2929"><stop offset="0" style="stop-color:#DEDFE3"/><stop offset="0.1738" style="stop-color:#D8D9DD"/><stop offset="0.352" style="stop-color:#C9CACD"/><stop offset="0.5323" style="stop-color:#B4B5B8"/><stop offset="0.7139" style="stop-color:#989A9C"/><stop offset="0.8949" style="stop-color:#797C7E"/><stop offset="1" style="stop-color:#656B6C"/></linearGradient><g id="XMLID_16_"><circle class="st0" cx="16" cy="15.5" id="XMLID_873_" r="15.1"/><g id="ytIE9y.tif_4_"><g id="XMLID_788_"><path class="st1" d="M6.4,25.3c0,0-0.1,0-0.1,0c0-0.1,0-0.2,0.1-0.3c0.4-1.6,0.9-3.2,1.3-4.9     c0.1-0.2,0-0.3-0.1-0.5c-0.7-1.3-1.1-2.7-1.2-4.2c-0.1-1.2,0-2.5,0.4-3.7c0.6-2.2,1.9-4,3.6-5.4c1.4-1.1,3-1.8,4.8-2.1     c0.3,0,0.6,0,0.9-0.1c0.4,0,0.9,0,1.3,0c0.4,0.1,0.7,0.1,1.1,0.1c0.9,0.2,1.8,0.4,2.7,0.8c1.4,0.7,2.6,1.6,3.6,2.8     c1.1,1.3,1.8,2.8,2.1,4.5c0.1,0.4,0.2,0.9,0.2,1.3c0,0.5,0,1,0,1.5c0,0.5-0.1,0.9-0.2,1.4c-0.5,2.2-1.6,4.1-3.3,5.7     c-1.7,1.5-3.6,2.3-5.9,2.5c-0.8,0.1-1.6,0.1-2.4,0c-1.2-0.2-2.3-0.5-3.4-1.1c-0.1-0.1-0.3-0.1-0.4,0c-1,0.3-1.9,0.5-2.9,0.8     C7.9,24.9,7.1,25.1,6.4,25.3z M16.9,23.3c0.3,0,0.6,0,1-0.1c0.4,0,0.7-0.1,1.1-0.2c1.7-0.5,3.2-1.3,4.3-2.7c1.7-2,2.4-4.3,2-6.9     c-0.2-1.3-0.7-2.6-1.5-3.7c-1.8-2.4-4.1-3.6-7.1-3.6c-0.7,0-1.4,0.1-2.1,0.3c-1.8,0.5-3.3,1.4-4.4,2.9c-1.6,2-2.2,4.2-1.8,6.7     c0.2,1.2,0.6,2.4,1.3,3.4c0.1,0.2,0.1,0.3,0.1,0.5c-0.2,0.9-0.5,1.7-0.7,2.6c-0.1,0.2,0,0.3,0.2,0.2c0.9-0.2,1.8-0.5,2.7-0.7     c0.2,0,0.3,0,0.5,0C13.6,22.9,15.1,23.3,16.9,23.3z" id="XMLID_790_"/><path class="st1" d="M11.4,12.5c0-1,0.4-1.8,1-2.4c0.3-0.3,0.7-0.3,1.1-0.3c0.5,0,0.6,0.3,0.8,0.7     c0.2,0.6,0.5,1.2,0.7,1.8c0.1,0.2,0.1,0.4,0,0.6c-0.2,0.3-0.4,0.6-0.6,0.8c-0.2,0.2-0.2,0.3-0.1,0.6c0.8,1.3,1.9,2.3,3.4,2.9     c0.4,0.1,0.4,0.1,0.7-0.1c0.2-0.3,0.5-0.5,0.7-0.8c0.2-0.3,0.4-0.3,0.7-0.2c0.4,0.2,0.8,0.4,1.2,0.6c0.3,0.1,0.5,0.3,0.8,0.4     c0.2,0.1,0.3,0.3,0.3,0.5c0,1-0.5,1.6-1.4,2c-0.7,0.3-1.4,0.3-2.1,0.1c-1.2-0.3-2.3-0.8-3.3-1.6c-1.4-1.1-2.5-2.4-3.4-3.9     C11.6,13.5,11.5,13,11.4,12.5z" id="XMLID_789_"/></g></g></g></svg>